<?xml version="1.0" encoding="utf-8" ?><svg xmlns="http://www.w3.org/2000/svg" xmlns:xlink="http://www.w3.org/1999/xlink" width="1024" height="1024" viewBox="0 0 1024 1024"><path fill="#F3F3F4" d="M0 0L1024 0L1024 1024L0 1024L0 0Z"/><path fill="#4F5AFD" d="M360.517 552.295C359.524 513.267 360.454 470.971 360.428 431.741L360.362 365.903C360.359 361.603 359.979 333.209 360.875 331.282C362.066 330.429 364.348 330.803 365.967 330.882L464.28 330.915C494.749 330.924 530.543 328.861 559.031 341.29C566.719 343.844 575.685 348.463 582.72 352.575C613.663 370.767 638.685 397.521 654.768 429.612C664.171 448.411 673.353 479.607 673.627 500.644C674.541 504.654 674.257 515.645 674.037 520.009C672.54 552.576 662.635 584.201 645.286 611.803C621.126 649.85 580.571 680.58 536.262 689.899C530.48 691.115 521.599 692.594 515.63 692.54C512.572 693.199 502.325 693.044 498.771 693.04L471.307 693.01L360.46 693.036C359.997 661.58 360.435 629.543 360.398 598.036C362.635 594.904 366.083 591.201 368.915 588.58C370.275 586.459 376.937 579.716 379.035 577.613C392.747 563.868 405.564 548.671 419.235 534.978C419.725 547.058 419.505 559.965 419.497 572.095L419.493 631.391L441.059 631.391C440.321 590.102 441.407 548.421 440.766 507.073L498.951 507.232L498.98 631.387L519.878 631.344C519.266 626.971 519.505 616.341 519.511 611.589L519.566 577.446C519.36 541.08 519.384 504.714 519.638 468.349C519.551 462.708 519.552 457.065 519.64 451.424L577.513 451.426L577.484 553.353L577.453 583.875C577.445 588.688 577.219 597.028 577.67 601.596C626.958 551.139 628.176 475.269 578.719 424.075C562.241 407.019 538.474 395.518 514.883 393.216C503.882 392.143 491.5 392.711 480.329 392.75L429.867 392.768L419.47 392.829L419.585 489.092C417.259 491.802 414.554 494.589 412.079 497.194C394.785 515.404 377.985 534.276 360.517 552.295Z"/><path fill="#525BE6" d="M360.517 552.295C359.524 513.267 360.454 470.971 360.428 431.741L360.362 365.903C360.359 361.603 359.979 333.209 360.875 331.282C362.066 330.429 364.348 330.803 365.967 330.882C364.694 331.791 363.883 332.346 362.528 333.122C361.326 340.089 362.679 346.09 362.186 352.506C361.367 363.152 363.341 372.795 362.193 383.152C360.257 400.634 362.387 418.347 361.777 435.904C361.275 453.435 361.696 470.88 361.27 488.409C361.15 494.909 362.195 504.441 362.271 511.282C362.323 515.995 360.886 536.928 361.494 539.788C362.279 540.562 363.503 541.468 363.689 542.334L362.226 543.173C362.996 543.84 363.353 544.01 364.419 543.84C370.2 542.913 376.402 530.432 380.337 526.448C382.932 523.822 386.776 522.425 389.512 519.89C392.616 517.014 393.781 512.797 396.503 509.693C398.76 507.12 401.937 505.324 404.501 503.08C407.144 500.767 415.051 491.571 416.507 488.609C421.25 478.961 416.577 410.578 418.852 392.362C420.887 392.311 428.698 391.835 429.867 392.768L419.47 392.829L419.585 489.092C417.259 491.802 414.554 494.589 412.079 497.194C394.785 515.404 377.985 534.276 360.517 552.295Z"/><path fill="#525BE6" d="M559.031 341.29C566.719 343.844 575.685 348.463 582.72 352.575C613.663 370.767 638.685 397.521 654.768 429.612C664.171 448.411 673.353 479.607 673.627 500.644C670.926 494.714 671.19 480.239 669.098 474.436C668.444 476.643 669.648 475.83 668.894 478.241C668.016 481.049 668.765 483.737 668.279 487.33C666.545 482.691 668.367 474.302 667.53 469.155C666.581 463.319 663.994 458.829 661.859 453.42C659.11 446.452 658.923 440.9 652.637 436.056C651.253 426.141 649.534 424.111 644.428 415.658C630.509 392.968 611.917 373.503 589.889 358.558C585.143 355.359 579.695 353.003 574.688 350.264C569.432 347.388 564.81 344.756 559.347 342.233L559.031 341.29Z"/><path fill="#525BE6" d="M519.64 451.424L577.513 451.426L577.484 553.353L577.453 583.875C577.445 588.688 577.219 597.028 577.67 601.596C577.003 601.531 577.363 601.651 576.696 601.005C575.643 585.219 576.371 562.446 576.34 546.057L575.75 454.242C575.04 454.054 574.325 453.885 573.615 453.696C572.787 453.474 571.966 453.223 571.114 453.099C566.415 452.416 523.71 451.775 522.014 453.533C519.888 455.736 520.303 464.566 520.2 467.523L519.638 468.349C519.551 462.708 519.552 457.065 519.64 451.424Z"/><path fill="#525BE6" d="M368.915 588.58C367.673 591.729 363.997 595.978 361.834 599.075C361.31 614.009 359.09 680.24 362.546 691.185C363.805 692.489 367.025 692.323 369.064 692.333C404.457 692.505 439.947 692.53 475.341 692.508L502.759 692.473C505.919 692.457 512.833 692.118 515.63 692.54C512.572 693.199 502.325 693.044 498.771 693.04L471.307 693.01L360.46 693.036C359.997 661.58 360.435 629.543 360.398 598.036C362.635 594.904 366.083 591.201 368.915 588.58Z"/></svg>