<?xml version="1.0" encoding="utf-8" ?><svg xmlns="http://www.w3.org/2000/svg" xmlns:xlink="http://www.w3.org/1999/xlink" width="1024" height="559" viewBox="0 0 1024 559"><path fill="#F3F3F4" d="M0 0L1024 0L1024 559L0 559L0 0Z"/><path fill="#4D5AFE" d="M135.058 193.895C151.19 193.688 167.798 194.015 183.876 193.837C217.334 193.466 243.334 192.005 269.295 217.383C286.056 233.497 295.582 255.709 295.702 278.959C296.01 301.891 287.106 323.988 270.984 340.3C244.68 367.017 219.913 365.862 185.894 365.846L135.053 365.799L135.063 320.266L164.576 290.879C164.907 305.772 164.598 321.518 164.613 336.501L175.927 336.555C175.876 321.045 175.691 294.864 175.984 278.449C176.194 278.16 176.405 277.871 176.616 277.582L205.472 277.565L205.47 336.517L216.498 336.453L216.519 250.937L246.201 250.901C246.047 275 246.029 299.101 246.145 323.2C247.237 322.141 248.312 321.065 249.37 319.973C260.248 308.786 266.302 294.811 266.056 279.087C265.9 263.854 259.68 249.313 248.772 238.68C232.16 222.661 216.106 223.001 195.12 223.029C184.963 223.014 174.806 223.077 164.65 223.218L164.591 269.205C154.692 278.978 144.993 289.121 135.011 298.764C135.61 264.467 135.058 228.355 135.058 193.895Z"/><path fill="#1A201F" d="M650.578 240.467L671.025 240.417C684.313 240.403 697.777 240.308 707.778 250.203C723.109 265.371 722.314 293.713 708.248 308.865C696.796 319.36 685.897 319.354 671.197 319.351L650.59 319.301C650.217 293.36 650.578 266.484 650.578 240.467Z"/><path fill="#F3F3F4" d="M667.605 254.701C686.808 254.41 701.742 254.742 701.587 279.541C701.536 287.714 701.247 292.29 695.651 298.789C688.123 306.267 677.291 304.673 667.504 304.539C667.562 287.941 667.399 271.292 667.605 254.701Z"/><path fill="#1A201F" d="M334.525 240.472L355.103 240.42C368.484 240.406 381.409 240.256 391.486 250.235C406.871 265.471 406.182 293.568 392.027 308.812C380.558 319.353 369.719 319.328 354.96 319.33L334.532 319.286L334.525 240.472Z"/><path fill="#F3F3F4" d="M351.666 254.708C360.099 254.589 371.274 253.496 378.003 259.311C388.083 268.023 387.974 288.992 379.592 298.727C371.911 306.255 361.468 304.672 351.549 304.533C351.48 287.925 351.519 271.316 351.666 254.708Z"/><path fill="#1A201F" d="M437.161 259.308C454.002 256.951 469.542 268.757 471.786 285.614C474.029 302.471 462.118 317.931 445.247 320.06C428.536 322.17 413.255 310.397 411.032 293.7C408.81 277.004 420.48 261.643 437.161 259.308Z"/><path fill="#F3F3F4" d="M440.856 271.58C458.761 273.472 458.876 304.489 442.205 307.347C424.718 306.791 422.667 275.858 440.856 271.58Z"/><path fill="#1A201F" d="M562.138 259.171C570.46 258.359 580.599 259.653 586.658 265.911C589.007 268.338 590.666 271.347 591.465 274.628C593.011 280.886 592.274 310.846 592.219 319.264C586.976 319.3 581.734 319.3 576.492 319.265L576.507 311.357C567.827 322.417 551.865 323.779 541.811 313.989C537.154 307.806 536.113 298.924 540.713 292.354C546.476 284.124 560.233 284.33 569.237 282.943C575.571 282.599 577.942 275.49 571.712 272.669C564.598 269.447 558.221 271.654 554.987 278.319C549.706 277.581 545.191 277.301 539.895 276.98C542.611 264.941 550.53 260.705 562.138 259.171Z"/><path fill="#F3F3F4" d="M574.36 292.088L575.251 292.334C577.811 304.703 567.896 311.658 556.535 307.278C554.664 305.561 552.423 301.464 554.102 299.139C557.979 293.77 568.124 293.623 574.36 292.088Z"/><path fill="#1A201F" d="M858.434 259.163C860.004 259.07 861.576 259.01 863.148 258.984C870.31 258.909 878.13 260.579 883.346 265.806C885.79 268.235 887.481 271.317 888.217 274.683C889.449 280.069 888.92 311.514 888.932 319.237C883.957 319.416 878.404 319.282 873.385 319.268L873.398 311.196C872.705 312.049 871.981 312.876 871.229 313.677C862.698 322.755 847.506 322.652 838.528 314.176C836.58 311.712 835.268 309.098 834.636 306.009C833.694 301.393 834.673 296.592 837.347 292.714C843.277 284.054 856.286 284.549 865.513 282.994C867.101 282.656 870.755 281.872 871.476 280.214C873.02 276.675 870.975 273.682 867.74 272.245C860.977 269.242 854.99 271.749 851.99 278.259C846.918 277.604 841.618 277.291 836.504 276.913C840.107 265.14 846.618 260.866 858.434 259.163Z"/><path fill="#F3F3F4" d="M871.135 292.102L871.649 292.127C872.651 293.996 871.703 299.891 871.371 302.167C866.967 308.695 860.388 310.251 853.202 307.26C851.487 305.675 849.458 302.182 850.596 299.912C853.565 293.991 865.135 293.429 871.135 292.102Z"/><path fill="#1A201F" d="M751.584 259.16C759.886 258.295 770.209 259.682 776.349 265.752C778.782 268.14 780.48 271.174 781.242 274.496C782.514 279.866 781.873 311.498 781.827 319.234C776.86 319.378 771.467 319.269 766.468 319.264L766.477 311.037C757.6 322.669 741.638 323.87 731.257 313.637C719.175 297.938 735.122 283.878 750.598 283.876C754.614 283.876 764.698 282.584 765.599 277.931C764.888 275.154 762.125 273.042 759.85 271.565C751.986 270.598 748.737 271.335 744.637 278.214C739.563 277.699 734.486 277.22 729.407 276.776C733.014 264.875 739.797 260.89 751.584 259.16Z"/><path fill="#F3F3F4" d="M765.026 291.623C768.092 304.09 757.541 312.261 745.886 306.935C736.12 294.072 757.985 294.123 764.787 291.71L765.026 291.623Z"/><path fill="#1A201F" d="M798.169 245.232L815.041 245.283L814.894 259.689L826.72 259.811L826.597 272.497L814.984 272.475C814.937 280.665 814.902 288.913 814.896 297.098C814.89 306.168 816.646 307.586 825.506 305.83C826.535 309.828 827.114 312.807 827.792 316.886C827.919 317.234 827.816 317.696 827.781 318.131C824.854 320.104 815.223 320.444 811.627 319.662C797.596 316.609 797.743 304.595 798.021 292.998C798.184 286.213 798.08 279.203 798.121 272.503L789.977 272.482C789.878 268.34 789.954 263.961 789.959 259.798L798.048 259.764L798.169 245.232Z"/><path fill="#1A201F" d="M511.043 240.481L527.999 240.5L527.997 319.312L511.019 319.314L511.043 240.481Z"/><path fill="#1A201F" d="M481.457 240.476L498.097 240.494C498.397 266.583 498.167 293.209 498.107 319.321L481.474 319.219C481.041 293.38 481.42 266.393 481.457 240.476Z"/><path fill="#1A201F" d="M633.846 259.118C637.192 258.968 638.827 259.251 642.101 259.726C641.934 264.592 641.578 269.495 641.416 274.433C628.325 271.014 621.273 276.538 621.369 290.079C621.438 299.776 621.457 309.596 621.484 319.302L604.649 319.299C604.042 300.842 604.572 278.48 604.636 259.855C610.1 259.766 615.566 259.775 621.031 259.881L621.113 270.725C624.483 264.102 626.097 260.773 633.846 259.118Z"/></svg>