<?xml version="1.0" encoding="utf-8" ?><svg xmlns="http://www.w3.org/2000/svg" width="760" height="180" viewBox="130 190 760 180"><path fill="#4D59FE" d="M134.983 193.922C151.061 194.259 168.372 193.952 184.483 193.874C217.739 193.712 242.719 192.361 268.392 216.654C285.175 232.375 294.917 254.194 295.42 277.185C296.364 313.244 275.254 347.065 240.825 360.316C223.661 366.923 199.761 365.721 181.225 365.694C165.846 365.568 150.466 365.598 135.088 365.785C135.052 352.074 134.607 333.481 135.309 320.072C142.541 312.029 156.829 298.441 164.817 290.602C164.459 293.664 164.64 302.37 164.628 305.747L164.517 336.523C168.099 336.377 172.38 336.491 176.019 336.501L175.967 295.568C175.965 292.695 175.782 279.966 176.314 278.051L177.495 277.574L205.457 277.501L205.525 336.523C209.101 336.418 212.933 336.512 216.532 336.543C215.998 308.638 216.481 279.006 216.491 250.997L246.124 250.889L246.023 323.8C258.421 310.561 266.169 298.28 266.132 279.499C266.07 264.305 260.044 249.742 249.351 238.947C233.078 222.76 215.924 222.88 194.261 222.903L164.488 222.975L164.443 269.108C154.749 279.05 144.964 288.903 135.09 298.666C135.354 263.752 135.318 228.836 134.983 193.922Z"/><path fill="#1E1F1F" d="M650.658 240.515L670.295 240.463C683.707 240.443 696.918 240.06 707.437 250.064C715.311 257.553 718.724 267.878 718.989 278.55C719.271 289.921 715.721 300.688 707.836 309.004C692.689 322.866 670.384 319.132 650.523 319.399C650.321 303.954 650.311 288.507 650.493 273.063C650.668 262.326 651.321 251.245 650.658 240.515ZM667.489 304.558C677.957 304.712 687.67 305.952 695.882 298.444C697.113 296.726 698.959 294.196 699.631 292.27C702.996 282.618 702.934 265.073 693.465 258.877C686.333 254.211 675.692 254.362 667.598 254.66C667.462 271.292 667.426 287.925 667.489 304.558Z"/><path fill="#1E1F1F" d="M334.71 240.524L356.752 240.44C370.145 240.472 381.928 240.757 391.985 251.057C406.394 265.814 405.962 294.507 391.415 308.829C376.365 322.745 354.779 318.952 334.645 319.209C335.408 311.505 335.037 295.782 334.966 287.67C334.833 272.278 335.263 255.801 334.71 240.524ZM380.031 298.299C383.226 293.443 385.494 288.126 385.696 282.296C386.617 255.806 372.501 254.047 351.525 254.578C351.353 269.613 350.333 289.954 351.416 304.652C361.145 304.793 372.193 306.003 379.679 298.649L380.031 298.299Z"/><path fill="#1E1F1F" d="M437.686 259.281C454.316 257.25 469.482 268.983 471.692 285.59C473.903 302.197 462.334 317.489 445.751 319.879C434.864 321.448 423.974 317.046 417.234 308.353C410.494 299.661 408.945 288.017 413.176 277.864C417.407 267.711 426.767 260.614 437.686 259.281ZM442.493 307.373C459.493 300.974 459.175 276.78 440.929 271.456C439.3 272.096 437.386 272.803 435.907 273.771C425.094 280.847 425.018 300.538 437.321 306.136C438.731 306.778 440.922 307.105 442.493 307.373Z"/><path fill="#1E1F1F" d="M751.161 259.171C753.195 259.011 755.235 258.944 757.275 258.97C773.875 259.171 782.063 267.326 781.976 283.788C781.913 295.625 782.017 307.421 781.62 319.283C776.599 319.214 771.577 319.236 766.557 319.348C766.874 316.112 766.703 314.363 766.451 311.18C756.161 322.148 744.611 323.868 732.424 314.731C717.983 299.466 734.414 283.883 750.639 283.711C754.639 283.668 764.856 282.077 765.31 277.226C764.215 274.379 761.965 273.092 759.42 271.572C756.578 271.352 754.098 271.465 751.266 271.553C747.609 273.621 746.961 274.531 744.566 278.057C739.698 277.803 734.329 277.257 729.43 276.864C732.522 265.224 739.812 260.79 751.161 259.171ZM746.961 307.345C750.362 308.189 751.017 308.019 754.405 308.272C761.567 308.805 768.351 297.879 765.13 292.032C764.736 292.05 764.197 292.026 763.846 292.164C759.072 293.013 734.028 295.499 746.68 307.178C746.774 307.234 746.868 307.29 746.961 307.345Z"/><path fill="#1E1F1F" d="M562.329 259.199C563.852 259.123 565.377 259.078 566.902 259.065C590.148 258.999 592.929 273.769 592.063 292.57C591.675 300.973 592.055 310.784 592.041 319.3C587.35 319.077 581.226 319.276 576.43 319.293L576.531 311.596C576.391 311.754 576.247 311.909 576.101 312.062C565.953 322.664 551.843 323.619 541.226 313.149C537.073 307.716 536.663 300.133 539.656 294.181C545.76 282.046 560.731 285.749 570.675 282.488C580.954 279.116 572.546 269.442 564.004 271.634C558.539 273.036 557.981 273.802 554.669 278.317C550.011 277.625 544.597 277.445 539.842 277.176C542.969 264.578 550.113 260.706 562.329 259.199ZM557.955 307.863C562.992 308.606 566.828 308.983 571.361 305.934C575.091 303.424 576.231 296.678 575.336 292.618C573.841 292.234 573.587 292.372 572.016 292.654C566.022 293.681 558.008 294.578 553.953 299.66C551.694 302.491 555.572 306.593 557.955 307.863Z"/><path fill="#1E1F1F" d="M858.291 259.175C866.776 258.56 876.407 259.208 882.754 265.559C885.167 267.975 886.884 270.997 887.723 274.306C889.432 280.962 888.95 311.076 888.966 319.301C884.258 319.536 878.224 319.361 873.418 319.359C873.318 316.857 873.448 314.051 873.508 311.525L873.357 311.69C863.388 322.404 849.056 323.837 838.224 313.527C836.014 310.884 834.719 307.595 834.535 304.154C832.983 277.734 864.988 288.144 870.929 280.513C871.732 279.482 872.145 278.062 871.967 276.765C871.759 275.244 870.737 274.007 869.494 273.172C866.856 271.399 863.236 270.848 860.152 271.501C855.914 272.398 854.151 274.664 851.899 278.164C847.592 277.396 840.935 277.15 836.546 276.906C840.101 265.125 846.305 260.758 858.291 259.175ZM854.878 307.85C862.418 309.46 866.095 308.272 871.239 302.443C871.806 298.884 874.28 291.677 868.799 292.654C863.475 293.515 848.257 295.172 850.577 303.685C850.99 305.2 851.992 306.486 853.359 307.258C853.807 307.511 854.383 307.701 854.878 307.85Z"/><path fill="#1E1F1F" d="M798.463 245.249C804.077 245.205 809.294 245.184 814.919 245.416C814.912 250.204 814.946 254.992 815.02 259.78C818.365 259.573 823.143 259.703 826.594 259.693L826.496 272.489L814.991 272.498C814.901 281.429 814.65 290.569 815.02 299.503C815.352 307.523 819.476 306.804 825.694 305.927C826.453 309.98 827.173 313.836 827.738 317.92C825.107 319.887 822.068 319.551 819.167 319.774C798.45 321.368 797.177 306.685 798.005 290.239C798.261 285.161 798.129 277.863 797.991 272.582L790.002 272.485C790.049 268.23 790.063 263.974 790.042 259.718L798.279 259.556C798.374 256.616 798.043 247.402 798.463 245.249Z"/><path fill="#1E1F1F" d="M511.06 240.605C516.567 240.5 522.258 240.565 527.78 240.557L527.981 290.28C527.996 299.195 528.3 310.557 527.779 319.333C522.197 319.248 516.566 319.267 510.979 319.248C511.673 312.54 511.14 299.671 511.121 292.213L511.06 240.605Z"/><path fill="#1E1F1F" d="M481.577 240.524L497.949 240.521L497.982 291.861C497.992 299.833 498.342 311.683 497.805 319.333L481.53 319.311C480.875 295.839 481.481 272.103 481.767 248.622C481.801 245.805 481.826 243.343 481.577 240.524Z"/><path fill="#1E1F1F" d="M633.739 259.183C636.458 259.079 639.37 259.399 642.098 259.623L641.488 274.118C624.291 272.697 621.484 276.549 621.091 294.122C620.907 302.41 620.852 310.995 621.438 319.283C615.866 319.08 610.213 319.234 604.634 319.321C604.142 312.898 604.333 303.256 604.349 296.626L604.497 259.85C608.928 259.472 616.446 259.653 621.104 259.617C621.019 262.97 621.172 266.348 621.279 269.703C624.79 263.471 626.438 260.771 633.739 259.183Z"/></svg>
