<?xml version="1.0" encoding="utf-8" ?><svg xmlns="http://www.w3.org/2000/svg" width="40" height="40" viewBox="0 0 1024 1024"><path fill="#4F59FE" d="M476.156 330.741C519.901 330.469 550.457 331.817 588.334 356.202C599.618 363.435 610.149 371.782 619.767 381.118C653.799 414.588 673.733 463.137 673.986 510.771C674.238 560.084 654.956 607.49 620.354 642.626C593.82 669.177 557.159 689.24 519.583 692.203C500.47 693.71 476.166 693.012 456.396 693.011L360.275 693.01C360.103 661.157 360.146 629.302 360.404 597.449C371.261 585.703 382.217 574.048 393.271 562.487C401.701 553.503 410.905 543.224 419.55 534.681C419.192 545.021 419.461 557.14 419.459 567.654L419.494 631.488C425.934 631.12 434.471 631.388 441.029 631.434C440.364 590.201 441.743 548.212 440.828 507.107C459.968 506.811 479.77 507.086 498.962 507.103L498.94 580.75L499.021 631.49C506.016 631.397 513.012 631.407 520.007 631.521C519.346 626.662 519.659 614.454 519.661 609.115L519.675 565.293L519.641 493.653C519.633 480.31 519.258 464.392 519.921 451.238C537.098 451.408 560.565 451.964 577.404 451.175L577.466 602.573C582.157 596.651 586.667 591.83 591.195 585.489C606.419 564.573 614.795 539.457 615.172 513.59C615.585 479.329 602.271 447.906 578.222 423.559C570.998 416.257 562.731 410.067 553.691 405.193C527.204 390.661 509.04 392.596 480.327 392.476C460.064 392.391 439.312 392.909 419.112 392.765C419.644 400.695 419.122 412.066 419.2 420.541C419.429 443.385 419.525 466.231 419.488 489.076C417.759 491.39 415.416 493.818 413.406 495.929C395.625 514.607 378.467 534.001 360.336 552.328C360.685 534.313 360.092 514.149 360.11 495.821L360.502 330.827C399.054 331.004 437.605 330.976 476.156 330.741Z"/></svg>
